<?xml version="1.0" encoding="UTF-8"?>
<svg width="100pt" height="100pt" version="1.1" viewBox="0 0 100 100" xmlns="http://www.w3.org/2000/svg">
  <path d="m49.094 62.395c0.042969 0.011719 0.070312 0.050781 0.070312 0.09375v26.836c0 0.066406-0.066406 0.11719-0.12891 0.09375l-43.965-13.594c-0.042968-0.011719-0.070312-0.050781-0.070312-0.09375v-26.734c0-0.066406 0.066406-0.11719 0.12891-0.09375l7.7617 2.3867 0.011719-0.019531zm30.301-25.246c0 9.4414-58.641 9.4414-58.641 0 0-14.676 13.129-26.57 29.32-26.57 16.191-0.003906 29.32 11.895 29.32 26.57zm-52-11.973c-0.35156-0.21875-0.8125-0.10938-1.0312 0.24609-0.83984 1.3672-1.5352 2.8125-2.0664 4.3008-0.14062 0.39062 0.0625 0.82031 0.45312 0.95703 0.082031 0.03125 0.16797 0.042968 0.25391 0.042968 0.30859 0 0.59766-0.19141 0.70703-0.49609 0.49609-1.3867 1.1484-2.7383 1.9336-4.0195 0.21094-0.35156 0.10156-0.8125-0.25-1.0312zm16.332-10.918c-0.10156-0.40234-0.50781-0.64453-0.91016-0.54687-5.2617 1.3164-9.918 4.0117-13.461 7.793-0.28125 0.30078-0.26562 0.77734 0.035156 1.0586 0.14453 0.13672 0.32812 0.20312 0.51172 0.20312 0.19922 0 0.39844-0.078125 0.54688-0.23828 3.3438-3.5703 7.7461-6.1172 12.73-7.3633 0.40625-0.097656 0.64844-0.50391 0.54687-0.90625zm-19.297 28.379c-0.16406 1-0.28516 2.0156-0.30469 3.0547 1.5234 1.5 10.215 4.0664 25.949 4.0664s24.426-2.5664 25.945-4.0664c-0.015625-1.0391-0.13672-2.0508-0.30469-3.0547-7.4414 2.9648-20.559 3.2773-25.645 3.2773-5.082 0-18.199-0.31641-25.641-3.2773zm70.441 6.2617-7.7617 2.3867-0.011719-0.019531-36.191 11.129c-0.042969 0.011719-0.070312 0.050781-0.070312 0.09375v26.836c0 0.066406 0.066406 0.11719 0.12891 0.09375l43.965-13.594c0.042968-0.011719 0.070312-0.050781 0.070312-0.09375v-26.734c0-0.066406-0.066406-0.11719-0.12891-0.097656zm-1.1445-1.2188c0.09375-0.027344 0.09375-0.16016 0-0.19141l-16.336-5.0508c0.19531 1.1992 0.30078 2.2305 0.31641 3.2227l0.011719 0.72266-0.51172 0.50781c-2.293 2.2617-12.352 4.5508-27.129 4.5508s-24.836-2.2891-27.129-4.5508l-0.51562-0.50391 0.011718-0.72266c0.015626-0.98437 0.12109-2.0156 0.31641-3.2227l-16.238 5.0156c-0.09375 0.027344-0.09375 0.16406 0 0.19141l7.2344 2.2227 36.289 11.156c0.019531 0.007812 0.039063 0.007812 0.058594 0l36.145-11.062z" 
       fill="#2563eb"/>
</svg>